# xmcd CD database file
#
# Track frame offsets:
#	150
#	72610
#	103278
#	152124
#	253634
#
# Disc length: 4151 seconds
#
# Revision: 0
# Processed by: cddbd v1.5.2PL0 Copyright (c) Steve Scherf et al.
# Submitted via: CDex 1.70beta3
#
DISCID=46103505
DTITLE=John Coltrane - So Many Things The European Tour 1961 Vol. 1 [CD1]
DYEAR=1961
DGENRE=Jazz
TTITLE0=Blue Train
TTITLE1=I Want To Talk About You
TTITLE2=Inpressions
TTITLE3=My Favorite Things
TTITLE4=Blue Train
EXTD=YEAR: 1961
EXTT0=
EXTT1=
EXTT2=
EXTT3=
EXTT4=
PLAYORDER=
